<?xml version="1.0" encoding="UTF-8" standalone="no"?><!DOCTYPE svg PUBLIC "-//W3C//DTD SVG 1.1//EN" "http://www.w3.org/Graphics/SVG/1.1/DTD/svg11.dtd"><svg width="100%" height="100%" viewBox="0 0 300 300" version="1.1" xmlns="http://www.w3.org/2000/svg" xmlns:xlink="http://www.w3.org/1999/xlink" xml:space="preserve" xmlns:serif="http://www.serif.com/" style="fill-rule:evenodd;clip-rule:evenodd;stroke-linejoin:round;stroke-miterlimit:1.5;"><g id="图层-1" serif:id="图层 1"><path d="M66.18,169.121l17.108,53.148" style="fill:none;fill-rule:nonzero;stroke:#666;stroke-width:5px;"/><path d="M76.596,143.117l134.073,-73.728" style="fill:none;fill-rule:nonzero;stroke:#666;stroke-width:5px;stroke-miterlimit:10;"/><path d="M228.093,79.368l8.205,116.02" style="fill:none;fill-rule:nonzero;stroke:#666;stroke-width:5px;"/><path d="M105.32,234.696l116.294,-18.771" style="fill:none;fill-rule:nonzero;stroke:#666;stroke-width:5px;"/><path d="M96.58,222.918l3.878,2.908l35.034,-44.406l-4.977,-1.745l-33.935,43.243Z" style="fill:#666;"/><path d="M135.7,173.132l4.97,1.614l76.689,-97.788l-3.89,-3.166l-77.769,99.34Z" style="fill:#666;"/><path d="M225.987,48.19c-7.941,0 -14.38,6.438 -14.38,14.38c0,7.942 6.439,14.381 14.38,14.381c7.942,0 14.381,-6.439 14.381,-14.381c0,-7.942 -6.439,-14.38 -14.381,-14.38" style="fill:#666;"/><path d="M62.579,138.21c-7.941,0 -14.379,6.438 -14.379,14.379c0,7.943 6.438,14.38 14.379,14.38c7.942,0 14.38,-6.437 14.38,-14.38c0,-7.941 -6.438,-14.379 -14.38,-14.379" style="fill:#666;"/><path d="M238.088,197.572c-7.942,0 -14.381,6.437 -14.381,14.38c0,7.941 6.439,14.38 14.381,14.38c7.941,0 14.38,-6.439 14.38,-14.38c0,-7.943 -6.439,-14.38 -14.38,-14.38" style="fill:#666;"/><path d="M88.733,223.716c-7.942,0 -14.38,6.438 -14.38,14.381c0,7.941 6.438,14.38 14.38,14.38c7.941,0 14.379,-6.439 14.379,-14.38c0,-7.943 -6.438,-14.381 -14.379,-14.381" style="fill:#666;"/><path d="M79.369,158.507l142.187,47.297" style="fill:none;fill-rule:nonzero;stroke:#666;stroke-width:5px;stroke-miterlimit:5.118;"/></g></svg>